<mxfile host="app.diagrams.net" modified="2024-03-31T06:44:00.042Z" agent="Mozilla/5.0 (Macintosh; Intel Mac OS X 10_15_7) AppleWebKit/537.36 (KHTML, like Gecko) Chrome/123.0.0.0 Safari/537.36" version="24.0.5" etag="_ZG6MFvgoPGT2nZParmp" type="github">
  <diagram name="Page-1" id="_pGYXAw_lIiwAzwqbge3">
    <mxGraphModel>
      <root>
        <mxCell id="0" />
        <mxCell id="1" parent="0" />
      </root>
    </mxGraphModel>
  </diagram>
</mxfile>
